.
 
http://www.scenetime.com    -   SceneTime [ We been having it ] !!!


How come you press harder on a remote control when you know the battery is dead? so you better seed to get speed ;)

        Seed back for speed


...................................NFO:.................................................[img]http://img838.imageshack.us/img838/7866/hesherdvd.jpg[/img]

[color=blue][size=5][b]Hesher.2010.DVDRip.XVID.AC3.HQ.Hive-CM8[/b][/size][/color]


[b]Thx Hive


CM8 Doing It Right The First Time :D

Source: R2 DVD-R

Encode:
the usual,brightness,rgb,sharpen,denoise
enjoy in HQ


Video: 720x400 @bitrate 1800 2pass
Audio: English AC3 5.1 @448
Sample: yes included[/b]


[url]http://www.imdb.com/title/tt1403177/[/url]


General
Complete name                    : Hesher.2010.DVDRip.XVID.AC3.HQ.Hive-CM8.avi
Format                           : AVI
Format/Info                      : Audio Video Interleave
File size                        : 1.60 GiB
Duration                         : 1h 41mn
Overall bit rate                 : 2 257 Kbps
Writing application              : Nandub v1.0rc2
Writing library                  : Nandub build 1853/release

Video
ID                               : 0
Format                           : MPEG-4 Visual
Format profile                   : Advanced Simple@L5
Format settings, BVOP            : 2
Format settings, QPel            : Yes
Format settings, GMC             : No warppoints
Format settings, Matrix          : Default (H.263)
Muxing mode                      : Packed bitstream
Codec ID                         : XVID
Codec ID/Hint                    : XviD
Duration                         : 1h 41mn
Bit rate                         : 1 799 Kbps
Width                            : 720 pixels
Height                           : 400 pixels
Display aspect ratio             : 16:9
Frame rate                       : 25.000 fps
Color space                      : YUV
Chroma subsampling               : 4:2:0
Bit depth                        : 8 bits
Scan type                        : Progressive
Compression mode                 : Lossy
Bits/(Pixel*Frame)               : 0.250
Stream size                      : 1.27 GiB (80%)
Writing library                  : XviD 1.2.1 (UTC 2008-12-04)

Audio
ID                               : 1
Format                           : AC-3
Format/Info                      : Audio Coding 3
Mode extension                   : CM (complete main)
Codec ID                         : 2000
Duration                         : 1h 41mn
Bit rate mode                    : Constant
Bit rate                         : 448 Kbps
Channel(s)                       : 6 channels
Channel positions                : Front: L C R, Side: L R, LFE
Sampling rate                    : 48.0 KHz
Bit depth                        : 16 bits
Compression mode                 : Lossy
Stream size                      : 325 MiB (20%)
Alignment                        : Split accross interleaves
Interleave, duration             : 40 ms (1.00 video frame)
Interleave, preload duration     : 500 ms



Natalie Portman	... 	Nicole
Joseph Gordon-Levitt	... 	Hesher
Rainn Wilson	... 	Paul Forney
John Carroll Lynch		
Piper Laurie	... 	Madeleine Forney


Hesher is a loner. He hates the world and everyone in it. 
He has long greasy hair and homemade tattoos. 
He is malnourished and smokes a lot of cigarettes. 
He likes fire and blowing things up. He lives in his van, until he meets TJ. 
  


[img]http://img89.imageshack.us/img89/7903/89313603.png[/img]
[IMG]http://img585.imageshack.us/img585/6507/hehehehehehehehehehe.png[/IMG]
[img]http://img143.imageshack.us/img143/3250/hehehehehehe.png[/img]
[img]http://img268.imageshack.us/img268/6275/heheua.png[/img]
[img]http://img585.imageshack.us/img585/9821/hehehefi.png[/img]
[img]http://img191.imageshack.us/img191/7672/hehehehesr.png[/img]
[img]http://img51.imageshack.us/img51/2254/hehehehehehehe.png[/img]
[img]http://img221.imageshack.us/img221/9615/hehehehehehehehe.png[/img]





Greetz

ViSiON,SANTi,3LT0N,MAGNET,THC,T0XiC,LKRG,FANTASIA-PLAY,FANTASIA-M,BHRG,IMAGiNE,WBZ,FLAWL3SS,NOVA,
D2U,Vik,Rapeseed,SAFC,goldadvance,MEMORY100,KaN1vE,Unevano,Pinnz,Wayne,cedrict wink,
Mr Hive and all P2P groups
Great Work Guys :D

FYS

CM8@hushmail.com